<svg width="99" height="65" viewBox="0 0 99 65" fill="none" xmlns="http://www.w3.org/2000/svg">
<path d="M68 2L33 63" stroke="url(#paint0_radial_1_47)" stroke-width="3" stroke-linecap="round"/>
<path d="M36.7161 34.7472L36.5795 33.5592C36.4952 32.8136 36.4471 31.9917 36.4353 31.0934L36.4162 29.0003C36.4036 28.5048 36.3977 28.0557 36.3986 27.653C35.4716 29.0188 34.7205 30.0868 34.1453 30.8569L32.4271 33.0952C28.5571 37.9307 26.193 40.4106 25.3348 40.5349C24.0706 40.7181 22.7032 40.638 21.2325 40.2946C20.435 40.1023 19.9605 39.8513 19.8091 39.5417C19.5879 39.1593 19.4269 38.6202 19.326 37.9244C19.2235 37.2169 19.1526 36.5641 19.1133 35.9659C19.0739 35.3677 19.0471 34.7736 19.0326 34.1836C19.0165 33.5821 19.0046 33.0095 18.9968 32.4659C18.999 31.9091 18.9939 31.4243 18.9815 31.0117C18.9647 30.0787 18.9215 29.6172 18.8519 29.6273L13.5325 38.5152C11.0016 42.5409 9.55518 44.7753 9.19313 45.2186C8.41775 46.1598 7.49078 46.7086 6.4122 46.8649C5.87871 46.9422 5.41867 46.8727 5.03209 46.6563C4.64551 46.44 4.42364 46.1347 4.3665 45.7404C4.25222 44.9517 4.46343 44.0804 5.00013 43.1264L17.6021 21.2472L19.0962 18.8105C20.8853 15.9581 22.1162 14.4831 22.7888 14.3856C23.7282 14.2495 24.6557 14.3578 25.5712 14.7106C26.3856 15.0189 26.8735 15.3626 27.035 15.7418C27.1033 15.8859 27.1064 16.6018 27.0443 17.8897L26.9119 21.2658C26.7587 25.0298 26.7594 27.4453 26.914 28.5123C27.067 29.5677 27.2652 30.0777 27.5088 30.0424C28.2974 29.9281 29.6293 28.4149 31.5045 25.5025L36.1628 17.936C37.197 16.3296 37.9028 15.3985 38.2801 15.1425C38.3877 15.0677 38.5517 15.0143 38.772 14.9824C38.9924 14.9505 39.2401 14.9442 39.5153 14.9635C39.802 14.9812 40.0913 15.0162 40.3831 15.0687C40.6865 15.1194 40.9808 15.1893 41.266 15.2782C41.5513 15.3671 41.8083 15.466 42.0373 15.5749C42.5333 15.8109 42.7897 16.0284 42.8067 16.2272C42.8336 16.4128 42.8469 16.8312 42.8465 17.4825C42.8445 18.1222 42.8394 18.9045 42.8314 19.8293C42.7376 25.9647 42.7373 29.5171 42.8304 30.4864C42.9351 31.4541 43.1211 32.0429 43.3883 32.2528C43.6672 32.4611 44.0385 32.5316 44.5025 32.4644C45.3491 32.3417 46.5053 31.659 47.9712 30.4164C48.9622 29.5742 49.8114 29.1018 50.5189 28.9993C51.2379 28.8951 51.647 29.1851 51.7462 29.8694C51.8487 30.5768 51.5904 31.4905 50.9711 32.6104C50.0811 34.2314 48.6258 35.7922 46.6053 37.2928C44.9041 38.5458 43.2243 39.2925 41.5659 39.5328C38.852 39.926 37.2355 38.3308 36.7161 34.7472Z" fill="url(#paint1_linear_1_47)"/>
<path d="M61.6817 29.6572L61.8184 30.8452C61.9027 31.5908 61.9508 32.4127 61.9625 33.3109L61.9817 35.404C61.9943 35.8995 62.0001 36.3487 61.9993 36.7514C62.9263 35.3856 63.6774 34.3176 64.2526 33.5475L65.9708 31.3092C69.8408 26.4737 72.2049 23.9938 73.0631 23.8694C74.3273 23.6862 75.6947 23.7664 77.1654 24.1098C77.9629 24.3021 78.4374 24.553 78.5888 24.8626C78.81 25.245 78.971 25.7841 79.0719 26.48C79.1744 27.1875 79.2453 27.8403 79.2846 28.4385C79.324 29.0367 79.3508 29.6308 79.3653 30.2207C79.3814 30.8223 79.3933 31.3949 79.401 31.9384C79.3989 32.4953 79.404 32.98 79.4164 33.3927C79.4332 34.3257 79.4764 34.7872 79.546 34.7771L84.8654 25.8891C87.3962 21.8635 88.8427 19.629 89.2048 19.1858C89.9801 18.2446 90.9071 17.6958 91.9857 17.5395C92.5192 17.4622 92.9792 17.5317 93.3658 17.748C93.7524 17.9644 93.9742 18.2697 94.0314 18.664C94.1457 19.4526 93.9345 20.324 93.3978 21.278L80.7958 43.1571L79.3017 45.5938C77.5126 48.4463 76.2817 49.9213 75.6091 50.0188C74.6697 50.1549 73.7422 50.0465 72.8267 49.6937C72.0123 49.3854 71.5244 49.0417 71.3629 48.6625C71.2946 48.5185 71.2915 47.8025 71.3536 46.5147L71.486 43.1385C71.6392 39.3745 71.6385 36.959 71.4839 35.8921C71.3309 34.8367 71.1327 34.3266 70.8891 34.3619C70.1005 34.4762 68.7686 35.9895 66.8934 38.9018L62.2351 46.4684C61.2009 48.0747 60.4951 49.0059 60.1177 49.2619C60.0102 49.3367 59.8462 49.39 59.6258 49.422C59.4055 49.4539 59.1577 49.4602 58.8826 49.4408C58.5958 49.4232 58.3066 49.3881 58.0148 49.3357C57.7114 49.2849 57.4171 49.2151 57.1319 49.1262C56.8466 49.0373 56.5896 48.9383 56.3606 48.8294C55.8646 48.5934 55.6081 48.376 55.5912 48.1772C55.5643 47.9916 55.551 47.5732 55.5514 46.9218C55.5534 46.2821 55.5584 45.4999 55.5665 44.5751C55.6603 38.4396 55.6606 34.8873 55.5675 33.9179C55.4628 32.9503 55.2768 32.3615 55.0096 32.1516C54.7307 31.9433 54.3593 31.8728 53.8954 31.94C53.0488 32.0627 51.8926 32.7453 50.4267 33.9879C49.4357 34.8302 48.5865 35.3025 47.879 35.4051C47.16 35.5093 46.7508 35.2192 46.6517 34.535C46.5492 33.8275 46.8075 32.9138 47.4268 31.7939C48.3168 30.173 49.7721 28.6122 51.7926 27.1116C53.4937 25.8586 55.1736 25.1119 56.832 24.8716C59.5459 24.4783 61.1624 26.0735 61.6817 29.6572Z" fill="url(#paint2_linear_1_47)"/>
<defs>
<radialGradient id="paint0_radial_1_47" cx="0" cy="0" r="1" gradientUnits="userSpaceOnUse" gradientTransform="translate(50.5 32.5) rotate(119.846) scale(35.1639 2473)">
<stop stop-color="#78716C"/>
<stop offset="1" stop-color="white"/>
</radialGradient>
<linearGradient id="paint1_linear_1_47" x1="4.30546" y1="32.6943" x2="51.8093" y2="25.8105" gradientUnits="userSpaceOnUse">
<stop stop-color="#D1FAE5"/>
<stop offset="1" stop-color="#22D3EE"/>
</linearGradient>
<linearGradient id="paint2_linear_1_47" x1="94.0924" y1="31.7101" x2="46.5886" y2="38.5938" gradientUnits="userSpaceOnUse">
<stop stop-color="#3B82F6"/>
<stop offset="0.725" stop-color="#22D3EE"/>
</linearGradient>
</defs>
</svg>
